<mxfile host="app.diagrams.net" modified="2023-08-23T14:16:08.696Z" agent="Mozilla/5.0 (Windows NT 10.0; Win64; x64) AppleWebKit/537.36 (KHTML, like Gecko) Chrome/116.0.0.0 Safari/537.36" etag="HIPuXkGYIzSl2BtSQl1T" version="21.6.6" type="device">
  <diagram name="PÃ¡gina-1" id="CgIuGW7xeose_FV6CDaD">
    <mxGraphModel dx="905" dy="740" grid="1" gridSize="10" guides="1" tooltips="1" connect="1" arrows="1" fold="1" page="1" pageScale="1" pageWidth="827" pageHeight="1169" math="0" shadow="0">
      <root>
        <mxCell id="0" />
        <mxCell id="1" parent="0" />
        <mxCell id="UsTPi7a0sJ60jn7rqGUJ-1" value="Account&lt;br&gt;&lt;br&gt;BigDecimal balance&lt;br&gt;int userId" style="rounded=1;whiteSpace=wrap;html=1;" vertex="1" parent="1">
          <mxGeometry y="160" width="160" height="120" as="geometry" />
        </mxCell>
        <mxCell id="UsTPi7a0sJ60jn7rqGUJ-2" value="Transfer&lt;br&gt;&lt;br&gt;int senderAccountId&lt;br&gt;int receiverAccountId&lt;br&gt;BigDecimal transferAmount" style="rounded=1;whiteSpace=wrap;html=1;" vertex="1" parent="1">
          <mxGeometry width="160" height="120" as="geometry" />
        </mxCell>
        <mxCell id="UsTPi7a0sJ60jn7rqGUJ-3" value="AccountController&lt;br&gt;&lt;br&gt;&lt;br&gt;&lt;br&gt;isAuthenticated() - is authenticated user of system&lt;br&gt;getBalance&lt;br&gt;/api/users/{userId}/accounts/{accountId}/balance&lt;br&gt;&lt;br&gt;&lt;br&gt;&lt;br style=&quot;border-color: var(--border-color);&quot;&gt;isAuthenticated() - is authenticated user of system&lt;br style=&quot;border-color: var(--border-color);&quot;&gt;@Valid&lt;br style=&quot;border-color: var(--border-color);&quot;&gt;listUsersToTransferTo&lt;br style=&quot;border-color: var(--border-color);&quot;&gt;/api/users/{userId}/accounts/{accountId}/transfers/users&lt;br style=&quot;border-color: var(--border-color);&quot;&gt;- RECIPIENT AND USER NEED TO BE VALID USERS&lt;br&gt;&lt;br&gt;&lt;br&gt;@ResponseStatus(HttpStatus.CREATED)&lt;br&gt;isAuthenticated() - is authenticated user of system&lt;br&gt;@Valid&lt;br&gt;sendTransfer&lt;br&gt;/api/users/{userId}/accounts/{accountId}/transfers/send/{receiverAccountId}&lt;br&gt;- RECIPIENT AND USER NEED TO BE VALID USERS&lt;br&gt;&lt;br&gt;&lt;br&gt;isAuthenticated() - is authenticated user of system&lt;br&gt;getTransfer&lt;br&gt;/api/transfers/{transferId}" style="rounded=1;whiteSpace=wrap;html=1;" vertex="1" parent="1">
          <mxGeometry x="170" y="330" width="460" height="460" as="geometry" />
        </mxCell>
        <mxCell id="UsTPi7a0sJ60jn7rqGUJ-4" value="JdbcAccountDao&lt;br&gt;&lt;br&gt;getAccountById&lt;br&gt;createAccount&lt;br&gt;updateAccount" style="rounded=1;whiteSpace=wrap;html=1;" vertex="1" parent="1">
          <mxGeometry x="200" y="160" width="240" height="120" as="geometry" />
        </mxCell>
        <mxCell id="UsTPi7a0sJ60jn7rqGUJ-7" value="Transfer" style="shape=table;startSize=30;container=1;collapsible=1;childLayout=tableLayout;fixedRows=1;rowLines=0;fontStyle=1;align=center;resizeLast=1;html=1;" vertex="1" parent="1">
          <mxGeometry x="480" width="290" height="210" as="geometry" />
        </mxCell>
        <mxCell id="UsTPi7a0sJ60jn7rqGUJ-8" value="" style="shape=tableRow;horizontal=0;startSize=0;swimlaneHead=0;swimlaneBody=0;fillColor=none;collapsible=0;dropTarget=0;points=[[0,0.5],[1,0.5]];portConstraint=eastwest;top=0;left=0;right=0;bottom=1;" vertex="1" parent="UsTPi7a0sJ60jn7rqGUJ-7">
          <mxGeometry y="30" width="290" height="30" as="geometry" />
        </mxCell>
        <mxCell id="UsTPi7a0sJ60jn7rqGUJ-9" value="PK" style="shape=partialRectangle;connectable=0;fillColor=none;top=0;left=0;bottom=0;right=0;fontStyle=1;overflow=hidden;whiteSpace=wrap;html=1;" vertex="1" parent="UsTPi7a0sJ60jn7rqGUJ-8">
          <mxGeometry width="30" height="30" as="geometry">
            <mxRectangle width="30" height="30" as="alternateBounds" />
          </mxGeometry>
        </mxCell>
        <mxCell id="UsTPi7a0sJ60jn7rqGUJ-10" value="transferId" style="shape=partialRectangle;connectable=0;fillColor=none;top=0;left=0;bottom=0;right=0;align=left;spacingLeft=6;fontStyle=5;overflow=hidden;whiteSpace=wrap;html=1;" vertex="1" parent="UsTPi7a0sJ60jn7rqGUJ-8">
          <mxGeometry x="30" width="260" height="30" as="geometry">
            <mxRectangle width="260" height="30" as="alternateBounds" />
          </mxGeometry>
        </mxCell>
        <mxCell id="UsTPi7a0sJ60jn7rqGUJ-11" value="" style="shape=tableRow;horizontal=0;startSize=0;swimlaneHead=0;swimlaneBody=0;fillColor=none;collapsible=0;dropTarget=0;points=[[0,0.5],[1,0.5]];portConstraint=eastwest;top=0;left=0;right=0;bottom=0;" vertex="1" parent="UsTPi7a0sJ60jn7rqGUJ-7">
          <mxGeometry y="60" width="290" height="30" as="geometry" />
        </mxCell>
        <mxCell id="UsTPi7a0sJ60jn7rqGUJ-12" value="FK" style="shape=partialRectangle;connectable=0;fillColor=none;top=0;left=0;bottom=0;right=0;editable=1;overflow=hidden;whiteSpace=wrap;html=1;" vertex="1" parent="UsTPi7a0sJ60jn7rqGUJ-11">
          <mxGeometry width="30" height="30" as="geometry">
            <mxRectangle width="30" height="30" as="alternateBounds" />
          </mxGeometry>
        </mxCell>
        <mxCell id="UsTPi7a0sJ60jn7rqGUJ-13" value="sendingAccountId FOREIGN KEY&amp;nbsp; (account)" style="shape=partialRectangle;connectable=0;fillColor=none;top=0;left=0;bottom=0;right=0;align=left;spacingLeft=6;overflow=hidden;whiteSpace=wrap;html=1;" vertex="1" parent="UsTPi7a0sJ60jn7rqGUJ-11">
          <mxGeometry x="30" width="260" height="30" as="geometry">
            <mxRectangle width="260" height="30" as="alternateBounds" />
          </mxGeometry>
        </mxCell>
        <mxCell id="UsTPi7a0sJ60jn7rqGUJ-14" value="" style="shape=tableRow;horizontal=0;startSize=0;swimlaneHead=0;swimlaneBody=0;fillColor=none;collapsible=0;dropTarget=0;points=[[0,0.5],[1,0.5]];portConstraint=eastwest;top=0;left=0;right=0;bottom=0;" vertex="1" parent="UsTPi7a0sJ60jn7rqGUJ-7">
          <mxGeometry y="90" width="290" height="30" as="geometry" />
        </mxCell>
        <mxCell id="UsTPi7a0sJ60jn7rqGUJ-15" value="FK" style="shape=partialRectangle;connectable=0;fillColor=none;top=0;left=0;bottom=0;right=0;editable=1;overflow=hidden;whiteSpace=wrap;html=1;" vertex="1" parent="UsTPi7a0sJ60jn7rqGUJ-14">
          <mxGeometry width="30" height="30" as="geometry">
            <mxRectangle width="30" height="30" as="alternateBounds" />
          </mxGeometry>
        </mxCell>
        <mxCell id="UsTPi7a0sJ60jn7rqGUJ-16" value="receivingAccountId FOREIGN KEY&amp;nbsp; (account)" style="shape=partialRectangle;connectable=0;fillColor=none;top=0;left=0;bottom=0;right=0;align=left;spacingLeft=6;overflow=hidden;whiteSpace=wrap;html=1;" vertex="1" parent="UsTPi7a0sJ60jn7rqGUJ-14">
          <mxGeometry x="30" width="260" height="30" as="geometry">
            <mxRectangle width="260" height="30" as="alternateBounds" />
          </mxGeometry>
        </mxCell>
        <mxCell id="UsTPi7a0sJ60jn7rqGUJ-17" value="" style="shape=tableRow;horizontal=0;startSize=0;swimlaneHead=0;swimlaneBody=0;fillColor=none;collapsible=0;dropTarget=0;points=[[0,0.5],[1,0.5]];portConstraint=eastwest;top=0;left=0;right=0;bottom=0;" vertex="1" parent="UsTPi7a0sJ60jn7rqGUJ-7">
          <mxGeometry y="120" width="290" height="30" as="geometry" />
        </mxCell>
        <mxCell id="UsTPi7a0sJ60jn7rqGUJ-18" value="" style="shape=partialRectangle;connectable=0;fillColor=none;top=0;left=0;bottom=0;right=0;editable=1;overflow=hidden;whiteSpace=wrap;html=1;" vertex="1" parent="UsTPi7a0sJ60jn7rqGUJ-17">
          <mxGeometry width="30" height="30" as="geometry">
            <mxRectangle width="30" height="30" as="alternateBounds" />
          </mxGeometry>
        </mxCell>
        <mxCell id="UsTPi7a0sJ60jn7rqGUJ-19" value="amount MONEY" style="shape=partialRectangle;connectable=0;fillColor=none;top=0;left=0;bottom=0;right=0;align=left;spacingLeft=6;overflow=hidden;whiteSpace=wrap;html=1;" vertex="1" parent="UsTPi7a0sJ60jn7rqGUJ-17">
          <mxGeometry x="30" width="260" height="30" as="geometry">
            <mxRectangle width="260" height="30" as="alternateBounds" />
          </mxGeometry>
        </mxCell>
        <mxCell id="UsTPi7a0sJ60jn7rqGUJ-21" value="" style="shape=tableRow;horizontal=0;startSize=0;swimlaneHead=0;swimlaneBody=0;fillColor=none;collapsible=0;dropTarget=0;points=[[0,0.5],[1,0.5]];portConstraint=eastwest;top=0;left=0;right=0;bottom=0;" vertex="1" parent="UsTPi7a0sJ60jn7rqGUJ-7">
          <mxGeometry y="150" width="290" height="30" as="geometry" />
        </mxCell>
        <mxCell id="UsTPi7a0sJ60jn7rqGUJ-22" value="" style="shape=partialRectangle;connectable=0;fillColor=none;top=0;left=0;bottom=0;right=0;fontStyle=0;overflow=hidden;whiteSpace=wrap;html=1;" vertex="1" parent="UsTPi7a0sJ60jn7rqGUJ-21">
          <mxGeometry width="30" height="30" as="geometry">
            <mxRectangle width="30" height="30" as="alternateBounds" />
          </mxGeometry>
        </mxCell>
        <mxCell id="UsTPi7a0sJ60jn7rqGUJ-23" value="timestamp DEFAULT NOW() TIMESTAMP&amp;nbsp;" style="shape=partialRectangle;connectable=0;fillColor=none;top=0;left=0;bottom=0;right=0;align=left;spacingLeft=6;fontStyle=0;overflow=hidden;whiteSpace=wrap;html=1;" vertex="1" parent="UsTPi7a0sJ60jn7rqGUJ-21">
          <mxGeometry x="30" width="260" height="30" as="geometry">
            <mxRectangle width="260" height="30" as="alternateBounds" />
          </mxGeometry>
        </mxCell>
        <mxCell id="UsTPi7a0sJ60jn7rqGUJ-26" value="" style="shape=tableRow;horizontal=0;startSize=0;swimlaneHead=0;swimlaneBody=0;fillColor=none;collapsible=0;dropTarget=0;points=[[0,0.5],[1,0.5]];portConstraint=eastwest;top=0;left=0;right=0;bottom=0;" vertex="1" parent="UsTPi7a0sJ60jn7rqGUJ-7">
          <mxGeometry y="180" width="290" height="30" as="geometry" />
        </mxCell>
        <mxCell id="UsTPi7a0sJ60jn7rqGUJ-27" value="" style="shape=partialRectangle;connectable=0;fillColor=none;top=0;left=0;bottom=0;right=0;fontStyle=0;overflow=hidden;whiteSpace=wrap;html=1;" vertex="1" parent="UsTPi7a0sJ60jn7rqGUJ-26">
          <mxGeometry width="30" height="30" as="geometry">
            <mxRectangle width="30" height="30" as="alternateBounds" />
          </mxGeometry>
        </mxCell>
        <mxCell id="UsTPi7a0sJ60jn7rqGUJ-28" value="status DEFAULT &#39;Approved&#39; String" style="shape=partialRectangle;connectable=0;fillColor=none;top=0;left=0;bottom=0;right=0;align=left;spacingLeft=6;fontStyle=0;overflow=hidden;whiteSpace=wrap;html=1;" vertex="1" parent="UsTPi7a0sJ60jn7rqGUJ-26">
          <mxGeometry x="30" width="260" height="30" as="geometry">
            <mxRectangle width="260" height="30" as="alternateBounds" />
          </mxGeometry>
        </mxCell>
        <mxCell id="UsTPi7a0sJ60jn7rqGUJ-29" value="JdbcTransferDao&lt;br&gt;&lt;br&gt;getTransferById&lt;br&gt;getTransfersBySenderIdOrReceiverId&lt;br&gt;createTransfer" style="rounded=1;whiteSpace=wrap;html=1;" vertex="1" parent="1">
          <mxGeometry x="200" width="240" height="120" as="geometry" />
        </mxCell>
      </root>
    </mxGraphModel>
  </diagram>
</mxfile>
